<svg width="20" height="23" viewBox="0 0 20 23" fill="none" xmlns="http://www.w3.org/2000/svg">
<path fill-rule="evenodd" clip-rule="evenodd" d="M12.3695 1.19628C13.1772 0.738825 14.1336 0.62098 15.0282 0.868652C15.4249 0.97847 15.7638 1.16978 16.0833 1.38586C16.3867 1.59108 16.7347 1.86277 17.1382 2.17766L17.197 2.22361C17.6004 2.5385 17.9485 2.8102 18.2213 3.05474C18.5084 3.31221 18.7763 3.59457 18.9792 3.9527C19.4366 4.76041 19.5544 5.71677 19.3068 6.61137C19.197 7.00802 19.0056 7.34698 18.7896 7.66646C18.5844 7.96989 18.3126 8.31798 17.9976 8.72139L9.71116 19.3372C9.69016 19.3641 9.66951 19.3906 9.6491 19.4168C9.26013 19.9156 8.96601 20.2926 8.6019 20.6024C8.29373 20.8645 7.95277 21.0855 7.58762 21.2597C7.15622 21.4655 6.69186 21.5799 6.07763 21.7314C6.04543 21.7393 6.01281 21.7473 5.97977 21.7555L3.50081 22.3674C3.32913 22.4099 3.13317 22.4584 2.9603 22.4849C2.76759 22.5145 2.46918 22.5414 2.1396 22.4359C1.7434 22.309 1.40535 22.0451 1.18608 21.6916C1.00369 21.3975 0.957277 21.1015 0.939228 20.9073C0.923035 20.7332 0.922464 20.5313 0.921962 20.3545C0.921927 20.3435 0.921904 20.3326 0.921869 20.3219L0.913854 17.8011C0.913737 17.767 0.91362 17.7334 0.913504 17.7003C0.911229 17.0677 0.909514 16.5894 1.00445 16.121C1.08481 15.7244 1.21638 15.34 1.39587 14.9775C1.60793 14.5491 1.90236 14.1723 2.29182 13.6738C2.31223 13.6476 2.33292 13.6212 2.35387 13.5943L10.6404 2.97842C10.9553 2.575 11.227 2.2269 11.4715 1.95414C11.729 1.66697 12.0114 1.3991 12.3695 1.19628ZM14.4056 3.11739C14.1074 3.03484 13.7887 3.07412 13.5194 3.2266C13.4737 3.2525 13.3869 3.31325 13.2089 3.51176C13.0239 3.7181 12.8011 4.00247 12.4568 4.44355L16.1354 7.31503C16.4798 6.87395 16.7015 6.58879 16.8568 6.35925C17.0062 6.1384 17.044 6.03943 17.058 5.98879C17.1406 5.69059 17.1013 5.37181 16.9488 5.10257C16.9229 5.05684 16.8621 4.97003 16.6637 4.79206C16.4573 4.60706 16.173 4.38428 15.7319 4.03998C15.2907 3.69567 15.0056 3.47389 14.7761 3.31864C14.5553 3.16927 14.4562 3.13141 14.4056 3.11739ZM14.6997 9.15434L11.0211 6.28287L4.19319 15.03C3.71514 15.6424 3.58033 15.8242 3.48701 16.0127C3.39727 16.194 3.33147 16.3862 3.2913 16.5844C3.24952 16.7905 3.2447 17.0167 3.24718 17.7936L3.25427 20.025L5.42051 19.4902C6.17477 19.304 6.39303 19.2444 6.58287 19.1537C6.76546 19.0667 6.93593 18.9562 7.09002 18.8251C7.25023 18.6888 7.39378 18.5139 7.87182 17.9015L14.6997 9.15434Z" fill="#18A4E1"/>
</svg>
